<?xml version="1.0" standalone="no"?>
<!DOCTYPE svg PUBLIC "-//W3C//DTD SVG 20010904//EN"
 "http://www.w3.org/TR/2001/REC-SVG-20010904/DTD/svg10.dtd">
<svg version="1.0" xmlns="http://www.w3.org/2000/svg"
 width="700.000000pt" height="700.000000pt" viewBox="0 0 700.000000 700.000000"
 preserveAspectRatio="xMidYMid meet">
<metadata>
Created by potrace 1.14, written by Peter Selinger 2001-2017
</metadata>
<g transform="translate(0.000000,700.000000) scale(0.100000,-0.100000)"
fill="#000000" stroke="none">
<path d="M3280 6994 c-19 -2 -87 -9 -150 -15 -478 -45 -998 -218 -1426 -476
-793 -478 -1371 -1251 -1594 -2133 -52 -207 -92 -461 -102 -645 l-2 -50 679
-3 c734 -3 1190 8 1353 33 248 38 449 122 639 265 229 173 399 379 523 635 72
148 113 269 146 434 14 69 32 136 40 149 38 59 122 78 181 42 46 -28 62 -57
78 -150 128 -727 668 -1280 1394 -1426 70 -14 136 -32 149 -40 59 -38 78 -122
42 -181 -29 -48 -54 -59 -190 -87 -493 -100 -910 -388 -1163 -806 -93 -154
-155 -352 -182 -585 -12 -106 -15 -295 -15 -1042 l0 -913 1169 0 c775 0 1196
4 1248 11 179 24 386 117 528 236 193 163 333 415 365 663 16 121 8 2851 -8
2970 -81 577 -229 1008 -499 1450 -199 325 -500 666 -798 904 -510 407 -1117
661 -1775 742 -117 15 -553 27 -630 18z"/>
<path d="M6553 6986 c-103 -34 -176 -98 -222 -196 -22 -46 -26 -69 -26 -140 0
-76 4 -93 33 -152 38 -77 92 -130 171 -167 47 -22 70 -26 141 -26 71 0 94 4
141 26 79 37 133 90 171 167 29 59 33 76 33 152 0 71 -4 94 -26 141 -58 124
-169 199 -302 205 -43 3 -89 -2 -114 -10z"/>
<path d="M2 2103 l3 -1218 24 -85 c109 -392 378 -659 778 -773 l78 -22 1218
-3 1218 -3 -4 968 c-3 865 -5 979 -21 1071 -57 337 -184 581 -431 827 -211
212 -422 336 -677 399 -211 53 -285 56 -1276 56 l-913 0 3 -1217z"/>
</g>
</svg>
