<?xml version="1.0" standalone="no"?>
<!DOCTYPE svg PUBLIC "-//W3C//DTD SVG 20010904//EN"
 "http://www.w3.org/TR/2001/REC-SVG-20010904/DTD/svg10.dtd">
<svg version="1.0" xmlns="http://www.w3.org/2000/svg"
 width="700.000000pt" height="700.000000pt" viewBox="0 0 700.000000 700.000000"
 preserveAspectRatio="xMidYMid meet">
<metadata>
Created by potrace 1.14, written by Peter Selinger 2001-2017
</metadata>
<g transform="translate(0.000000,700.000000) scale(0.100000,-0.100000)"
fill="#000000" stroke="none">
<path d="M3280 6994 c-19 -2 -87 -9 -150 -15 -478 -45 -998 -218 -1426 -476
-793 -478 -1371 -1251 -1594 -2133 -52 -207 -92 -461 -102 -645 l-2 -50 884 1
c923 0 1033 4 1230 45 220 45 384 118 557 249 229 173 399 379 523 635 71 147
113 271 146 435 28 136 39 161 87 190 59 36 143 17 181 -42 8 -13 26 -80 40
-149 34 -167 74 -287 146 -434 243 -499 687 -840 1239 -951 70 -14 136 -32
149 -40 59 -38 78 -122 42 -181 -29 -48 -54 -59 -190 -87 -493 -100 -909 -388
-1163 -807 -79 -129 -141 -307 -173 -501 -16 -92 -18 -204 -21 -1070 l-4 -968
1170 0 c775 0 1196 4 1248 11 43 6 126 26 184 46 305 100 547 335 654 637 68
190 66 135 62 1696 -3 1006 -7 1429 -15 1490 -81 577 -229 1008 -499 1450
-199 325 -500 666 -798 904 -510 407 -1117 661 -1775 742 -117 15 -553 27
-630 18z"/>
<path d="M6553 6986 c-103 -34 -176 -98 -222 -196 -22 -46 -26 -69 -26 -140 0
-76 4 -93 33 -152 38 -77 92 -130 171 -167 47 -22 70 -26 141 -26 71 0 94 4
141 26 79 37 133 90 171 167 29 59 33 76 33 152 0 71 -4 94 -26 141 -58 124
-169 199 -302 205 -43 3 -89 -2 -114 -10z"/>
<path d="M2 2103 l3 -1218 24 -85 c109 -392 378 -659 778 -773 l78 -22 1218
-3 1217 -3 0 905 c0 902 -3 1017 -36 1196 -52 283 -193 541 -418 765 -213 212
-423 336 -678 399 -211 53 -285 56 -1276 56 l-913 0 3 -1217z"/>
</g>
</svg>
